<?xml version="1.0" standalone="no"?>
<!DOCTYPE svg PUBLIC "-//W3C//DTD SVG 20010904//EN"
 "http://www.w3.org/TR/2001/REC-SVG-20010904/DTD/svg10.dtd">
<svg version="1.0" xmlns="http://www.w3.org/2000/svg"
 width="300.000000pt" height="300.000000pt" viewBox="0 0 300.000000 300.000000"
 preserveAspectRatio="xMidYMid meet">
<metadata>
Created by potrace 1.10, written by Peter Selinger 2001-2011
</metadata>
<g transform="translate(0.000000,300.000000) scale(0.050000,-0.050000)"
fill="#000000" stroke="none">
<path d="M444 5962 c-123 -42 -228 -121 -319 -240 -132 -173 -126 -36 -120
-2763 l5 -2469 47 -104 c56 -124 206 -271 339 -332 l94 -44 2510 0 2510 0 94
43 c139 65 262 189 328 332 l58 125 0 2490 0 2490 -58 125 c-66 143 -189 267
-328 332 l-94 43 -2480 5 c-2361 4 -2485 2 -2586 -33z m1518 -1060 l58 -59 0
-482 c0 -672 27 -641 -550 -641 -577 0 -550 -31 -550 641 l0 482 58 59 59 58
433 0 433 0 59 -58z m3210 -8 c48 -56 48 -57 48 -557 l0 -500 -58 -59 -59 -58
-412 0 c-606 0 -576 -35 -567 648 l6 475 67 60 66 59 430 -6 431 -6 48 -56z
m-842 -1364 c934 -196 1293 -1365 653 -2124 -44 -53 -242 -330 -439 -616 -435
-632 -433 -630 -552 -630 -103 0 -218 81 -240 170 -7 27 -147 293 -312 590
-165 298 -300 546 -300 550 0 5 -23 42 -52 84 -626 913 182 2198 1242 1976z
m-2336 -1258 l56 -49 0 -511 0 -511 -55 -55 -55 -55 -351 -8 c-661 -14 -629
-46 -629 618 l0 496 52 61 52 62 437 0 c433 0 437 0 493 -48z"/>
<path d="M3866 3083 c-607 -210 -668 -1071 -97 -1363 481 -246 1036 108 1035
660 -1 508 -475 863 -938 703z"/>
</g>
</svg>
